<svg xmlns="http://www.w3.org/2000/svg" version="1.1" xmlns:xlink="http://www.w3.org/1999/xlink" xmlns:svgjs="http://svgjs.dev/svgjs" width="1000" height="239" viewBox="0 0 1000 239"><g transform="matrix(1,0,0,1,-0.6060606060606233,0.2433926389889649)"><svg viewBox="0 0 396 95" data-background-color="#ffffff" preserveAspectRatio="xMidYMid meet" height="239" width="1000" xmlns="http://www.w3.org/2000/svg" xmlns:xlink="http://www.w3.org/1999/xlink"><g id="tight-bounds" transform="matrix(1,0,0,1,0.2400000000000091,-0.09674602805000632)"><svg viewBox="0 0 395.52 95.19349205610003" height="95.19349205610003" width="395.52"><g><svg viewBox="0 0 499.7880206172563 120.28865030937182" height="95.19349205610003" width="395.52"><g><rect width="5.147029901294666" height="104.44745323534455" x="85.64709045079236" y="7.920598537013632" fill="#ffffff" opacity="1" stroke-width="0" stroke="transparent" fill-opacity="1" class="rect-r$-0" data-fill-palette-color="primary" rx="1%" id="r$-0" data-palette-color="#ffffff"></rect></g><g transform="matrix(1,0,0,1,104.26802061725631,16.624552973292346)"><svg viewBox="0 0 395.52 87.03954436278713" height="87.03954436278713" width="395.52"><g id="textblocktransform"><svg viewBox="0 0 395.52 87.03954436278713" height="87.03954436278713" width="395.52" id="textblock"><g><svg viewBox="0 0 395.52 57.07441783649876" height="57.07441783649876" width="395.52"><g transform="matrix(1,0,0,1,0,0)"><svg width="395.52" viewBox="0.4 -34.3 242.19 34.949999999999996" height="57.07441783649876" data-palette-color="#ffffff"><path d="M36.9-5.25L41.7-5.25 41.7 0 24.75 0 24.75-5.25 30-5.25 27.5-11.75 13.85-11.75 11.35-5.25 17.1-5.25 17.1 0 0.4 0 0.4-5.25 5.1-5.25 15.25-29.1 10.95-29.1 10.95-34.3 31-34.3 31-29.1 26.65-29.1 36.9-5.25ZM15.65-16.45L25.7-16.45 20.8-29.1 20.55-29.1 15.65-16.45ZM60.8-34.3Q66.05-34.3 70.62-32.43 75.2-30.55 78.02-26.7 80.85-22.85 80.85-17.15L80.85-17.15Q80.85-11.5 78.02-7.63 75.2-3.75 70.62-1.88 66.05 0 60.8 0L60.8 0 43.85 0 43.85-5.25 49.85-5.25 49.85-29.05 43.85-29.05 43.85-34.3 60.8-34.3ZM60.1-5.25Q65.9-5.25 69.92-7.95 73.95-10.65 73.95-17.15L73.95-17.15Q73.95-23.65 69.92-26.35 65.9-29.05 60.1-29.05L60.1-29.05 56.5-29.05 56.5-5.25 60.1-5.25ZM101.65-34.3Q106.9-34.3 111.47-32.43 116.05-30.55 118.87-26.7 121.7-22.85 121.7-17.15L121.7-17.15Q121.7-11.5 118.87-7.63 116.05-3.75 111.47-1.88 106.9 0 101.65 0L101.65 0 84.7 0 84.7-5.25 90.7-5.25 90.7-29.05 84.7-29.05 84.7-34.3 101.65-34.3ZM100.95-5.25Q106.75-5.25 110.77-7.95 114.8-10.65 114.8-17.15L114.8-17.15Q114.8-23.65 110.77-26.35 106.75-29.05 100.95-29.05L100.95-29.05 97.35-29.05 97.35-5.25 100.95-5.25ZM144.24-29.05L138.19-29.05 138.19-5.25 144.24-5.25 144.24 0 125.54 0 125.54-5.25 131.54-5.25 131.54-29.05 125.54-29.05 125.54-34.3 144.24-34.3 144.24-29.05ZM182.34-22.4L176.54-22.4 176.54-29.05 160.14-29.05 160.14-19.4 166.74-19.4 166.74-23.7 171.69-23.7 171.69-10.35 166.74-10.35 166.74-14.65 160.14-14.65 160.14-5.25 176.54-5.25 176.54-11.9 182.34-11.9 182.34 0 147.69 0 147.69-5.25 153.64-5.25 153.64-29.05 147.69-29.05 147.69-34.3 182.34-34.3 182.34-22.4ZM242.59-34.3L242.59-29.05 237.14-29.05 223.39 0.65 219.99 0.65 206.29-29.05 200.79-29.05 200.79-34.3 218.14-34.3 218.14-29.05 213.19-29.05 222.09-8.35 230.79-29.05 225.19-29.05 225.19-34.3 242.59-34.3Z" opacity="1" transform="matrix(1,0,0,1,0,0)" fill="#ffffff" class="wordmark-text-0" data-fill-palette-color="primary" id="text-0"></path></svg></g></svg></g><g transform="matrix(1,0,0,1,0,70.54831810166804)"><svg viewBox="0 0 232.209792 16.49122626111908" height="16.49122626111908" width="232.209792"><g transform="matrix(1,0,0,1,0,0)"><svg width="232.209792" viewBox="1.2 -37.95 557.56 39.6" height="16.49122626111908" data-palette-color="#ffffff"><path d="M25.2-34.25L25.2-34.25 23.25-29.8Q21.2-30.55 19.18-31 17.15-31.45 15.3-31.45L15.3-31.45Q12.15-31.45 10.28-30.15 8.4-28.85 8.4-26.85L8.4-26.85Q8.4-25.15 9.75-24.13 11.1-23.1 13.1-22.28 15.1-21.45 17.45-20.63 19.8-19.8 21.8-18.5 23.8-17.2 25.15-15.23 26.5-13.25 26.5-10.15L26.5-10.15Q26.5-7.75 25.63-5.83 24.75-3.9 23.03-2.5 21.3-1.1 18.73-0.35 16.15 0.4 12.7 0.4L12.7 0.4Q10.5 0.4 8.72 0.1 6.95-0.2 5.53-0.68 4.1-1.15 3.03-1.7 1.95-2.25 1.2-2.7L1.2-2.7 3.6-7.45Q5.6-6.3 8.05-5.6 10.5-4.9 12.5-4.9L12.5-4.9Q13.5-4.9 14.98-5.15 16.45-5.4 17.8-6.03 19.15-6.65 20.13-7.7 21.1-8.75 21.1-10.35L21.1-10.35Q21.1-11.8 20.33-12.83 19.55-13.85 18.28-14.63 17-15.4 15.38-16.03 13.75-16.65 12.05-17.32 10.35-18 8.72-18.75 7.1-19.5 5.83-20.58 4.55-21.65 3.78-23.08 3-24.5 3-26.5L3-26.5Q3-28.35 3.75-30.15 4.5-31.95 6-33.35 7.5-34.75 9.73-35.6 11.95-36.45 14.9-36.45L14.9-36.45Q16.7-36.45 18.43-36.15 20.15-35.85 21.55-35.48 22.95-35.1 23.93-34.75 24.9-34.4 25.2-34.25ZM30.15-18.1L30.15-18.1Q30.15-21.85 31.6-25.23 33.05-28.6 35.57-31.15 38.1-33.7 41.45-35.18 44.8-36.65 48.65-36.65L48.65-36.65Q52.45-36.65 55.82-35.18 59.2-33.7 61.72-31.15 64.25-28.6 65.72-25.23 67.2-21.85 67.2-18.1L67.2-18.1Q67.2-14.25 65.72-10.9 64.25-7.55 61.72-5.03 59.2-2.5 55.82-1.05 52.45 0.4 48.65 0.4L48.65 0.4Q44.8 0.4 41.45-1.05 38.1-2.5 35.57-5.03 33.05-7.55 31.6-10.9 30.15-14.25 30.15-18.1ZM35.6-18.05L35.6-18.05Q35.6-15.3 36.62-12.88 37.65-10.45 39.45-8.65 41.25-6.85 43.65-5.8 46.05-4.75 48.75-4.75L48.75-4.75Q51.45-4.75 53.82-5.8 56.2-6.85 57.97-8.65 59.75-10.45 60.77-12.88 61.8-15.3 61.8-18.1L61.8-18.1Q61.8-20.85 60.77-23.28 59.75-25.7 57.95-27.5 56.15-29.3 53.77-30.35 51.4-31.4 48.7-31.4L48.7-31.4Q46-31.4 43.6-30.35 41.2-29.3 39.42-27.5 37.65-25.7 36.62-23.25 35.6-20.8 35.6-18.05ZM79 0L73.55 0 73.55-36.25 95.25-36.25 95.25-31.2 79-31.2 79-20.25 93.19-20.25 93.19-15.15 79-15.15 79 0ZM98.84-36.25L122.39-36.25 122.39-31.05 113.24-31.05 113.24 0 107.79 0 107.79-31.05 98.84-31.05 98.84-36.25ZM165.69-36.1L171.39-36.1Q169.59-31.35 167.56-26.13 165.54-20.9 163.56-15.85 161.59-10.8 159.84-6.25 158.09-1.7 156.89 1.6L156.89 1.6 148.79-18.65Q148.64-19.05 148.54-19.25 148.44-19.45 148.34-19.85L148.34-19.85Q148.34-19.65 148.29-19.48 148.24-19.3 148.19-19.1L148.19-19.1Q148.14-18.9 148.09-18.7L148.09-18.7Q146.39-14.8 144.74-11.05L144.74-11.05Q144.04-9.45 143.29-7.75 142.54-6.05 141.84-4.38 141.14-2.7 140.47-1.15 139.79 0.4 139.24 1.65L139.24 1.65Q135.64-7.8 131.99-17.2 128.34-26.6 124.74-36.1L124.74-36.1 130.89-36.1Q132.09-32.8 133.37-29.45 134.64-26.1 135.76-23 136.89-19.9 137.79-17.25 138.69-14.6 139.19-12.75L139.19-12.75 139.59-11Q139.64-11.25 139.84-11.83 140.04-12.4 140.14-12.65L140.14-12.65Q140.19-12.85 140.49-13.55 140.79-14.25 141.19-15.23 141.59-16.2 142.09-17.35 142.59-18.5 143.09-19.7L143.09-19.7Q144.29-22.45 145.74-25.8L145.74-25.8Q144.89-28.15 144.24-30.2L144.24-30.2Q143.64-31.95 143.12-33.65 142.59-35.35 142.34-36.1L142.34-36.1 147.59-36.1Q149.74-30.45 151.59-25.65L151.59-25.65Q152.34-23.6 153.12-21.55 153.89-19.5 154.56-17.75 155.24-16 155.74-14.68 156.24-13.35 156.44-12.75L156.44-12.75Q156.59-12.3 156.66-11.88 156.74-11.45 156.84-11L156.84-11Q156.94-11.45 157.01-11.9 157.09-12.35 157.19-12.75L157.19-12.75Q157.64-14.7 158.59-17.4 159.54-20.1 160.72-23.2 161.89-26.3 163.19-29.63 164.49-32.95 165.69-36.1L165.69-36.1ZM201.39 0L195.99 0Q195.74-0.55 195.29-1.6 194.84-2.65 194.26-4.03 193.69-5.4 193.01-7.03 192.34-8.65 191.64-10.4L191.64-10.4 178.84-10.4 174.54 0 169.14 0 185.29-37.95Q185.59-37.25 186.36-35.4 187.14-33.55 188.21-30.98 189.29-28.4 190.61-25.28 191.94-22.15 193.31-18.95 194.69-15.75 196.01-12.65 197.34-9.55 198.44-6.95 199.54-4.35 200.31-2.53 201.09-0.7 201.39 0L201.39 0ZM184.74-24.7L180.74-15 189.79-15Q189.09-16.65 188.46-18.18 187.84-19.7 187.31-20.98 186.79-22.25 186.39-23.2 185.99-24.15 185.79-24.7L185.79-24.7Q185.74-24.8 185.56-25.4 185.39-26 185.29-26.5L185.29-26.5Q185.19-26 184.99-25.4 184.79-24.8 184.74-24.7L184.74-24.7ZM211.39 0L205.89 0 205.89-36.25 215.79-36.25Q218.64-36.25 221.01-35.5 223.39-34.75 225.11-33.27 226.84-31.8 227.79-29.68 228.74-27.55 228.74-24.8L228.74-24.8Q228.74-23.3 228.44-21.83 228.14-20.35 227.46-18.98 226.79-17.6 225.74-16.43 224.69-15.25 223.19-14.45L223.19-14.45Q225.19-11.3 227.54-7.48 229.89-3.65 232.29 0L232.29 0 225.74 0Q224.74-1.55 223.66-3.25 222.59-4.95 221.51-6.63 220.44-8.3 219.41-9.93 218.39-11.55 217.49-12.95L217.49-12.95 216.49-12.95 211.39-12.95 211.39 0ZM211.39-31.15L211.39-18.1 216.34-18.1Q218.34-18.1 219.69-18.78 221.04-19.45 221.81-20.45 222.59-21.45 222.91-22.6 223.24-23.75 223.24-24.7L223.24-24.7Q223.24-25.65 222.91-26.78 222.59-27.9 221.79-28.88 220.99-29.85 219.66-30.5 218.34-31.15 216.39-31.15L216.39-31.15 211.39-31.15ZM261.78 0L237.28 0 237.28-36.25 261.08-36.25 261.08-31.3 242.78-31.3 242.78-20.7 259.08-20.7 259.08-15.65 242.78-15.65 242.78-5.05 261.78-5.05 261.78 0ZM274.63 0L274.63-36.25 283.73-36.25Q289.23-36.25 293.03-34.6 296.83-32.95 299.2-30.28 301.58-27.6 302.65-24.28 303.73-20.95 303.73-17.65L303.73-17.65Q303.73-13.6 302.28-10.33 300.83-7.05 298.33-4.75 295.83-2.45 292.53-1.23 289.23 0 285.53 0L285.53 0 274.63 0ZM280.08-5.2L284.73-5.2Q287.63-5.2 290.1-6.05 292.58-6.9 294.4-8.53 296.23-10.15 297.25-12.53 298.28-14.9 298.28-18L298.28-18Q298.28-21.3 297.13-23.75 295.98-26.2 294.13-27.83 292.28-29.45 289.95-30.23 287.63-31 285.23-31L285.23-31 280.08-31 280.08-5.2ZM334.68 0L310.18 0 310.18-36.25 333.98-36.25 333.98-31.3 315.68-31.3 315.68-20.7 331.98-20.7 331.98-15.65 315.68-15.65 315.68-5.05 334.68-5.05 334.68 0ZM336.67-36.25L342.07-36.25Q342.42-35.4 343.22-33.48 344.02-31.55 345.05-29.1 346.07-26.65 347.2-23.9 348.32-21.15 349.32-18.7 350.32-16.25 351.12-14.33 351.92-12.4 352.27-11.55L352.27-11.55Q352.32-11.45 352.52-10.85 352.72-10.25 352.82-9.8L352.82-9.8 353.32-11.55Q353.67-12.4 354.47-14.33 355.27-16.25 356.27-18.7 357.27-21.15 358.4-23.9 359.52-26.65 360.55-29.1 361.57-31.55 362.37-33.48 363.17-35.4 363.52-36.25L363.52-36.25 368.92-36.25Q368.62-35.55 367.85-33.73 367.07-31.9 365.97-29.3 364.87-26.7 363.55-23.6 362.22-20.5 360.85-17.3 359.47-14.1 358.15-11 356.82-7.9 355.75-5.3 354.67-2.7 353.9-0.88 353.12 0.95 352.82 1.65L352.82 1.65 336.67-36.25ZM397.97 0L373.47 0 373.47-36.25 397.27-36.25 397.27-31.3 378.97-31.3 378.97-20.7 395.27-20.7 395.27-15.65 378.97-15.65 378.97-5.05 397.97-5.05 397.97 0ZM427.82 0L404.32 0 404.32-36.25 409.82-36.25 409.82-5.2 427.82-5.2 427.82 0ZM429.27-18.1L429.27-18.1Q429.27-21.85 430.72-25.23 432.17-28.6 434.69-31.15 437.22-33.7 440.57-35.18 443.92-36.65 447.77-36.65L447.77-36.65Q451.57-36.65 454.94-35.18 458.32-33.7 460.84-31.15 463.37-28.6 464.84-25.23 466.32-21.85 466.32-18.1L466.32-18.1Q466.32-14.25 464.84-10.9 463.37-7.55 460.84-5.03 458.32-2.5 454.94-1.05 451.57 0.4 447.77 0.4L447.77 0.4Q443.92 0.4 440.57-1.05 437.22-2.5 434.69-5.03 432.17-7.55 430.72-10.9 429.27-14.25 429.27-18.1ZM434.72-18.05L434.72-18.05Q434.72-15.3 435.74-12.88 436.77-10.45 438.57-8.65 440.37-6.85 442.77-5.8 445.17-4.75 447.87-4.75L447.87-4.75Q450.57-4.75 452.94-5.8 455.32-6.85 457.09-8.65 458.87-10.45 459.89-12.88 460.92-15.3 460.92-18.1L460.92-18.1Q460.92-20.85 459.89-23.28 458.87-25.7 457.07-27.5 455.27-29.3 452.89-30.35 450.52-31.4 447.82-31.4L447.82-31.4Q445.12-31.4 442.72-30.35 440.32-29.3 438.54-27.5 436.77-25.7 435.74-23.25 434.72-20.8 434.72-18.05ZM478.16-31.15L478.16-18.1 483.11-18.1Q485.11-18.1 486.46-18.8 487.81-19.5 488.59-20.5 489.36-21.5 489.69-22.65 490.01-23.8 490.01-24.7L490.01-24.7Q490.01-25.65 489.69-26.78 489.36-27.9 488.56-28.88 487.76-29.85 486.44-30.5 485.11-31.15 483.16-31.15L483.16-31.15 478.16-31.15ZM478.16 0L472.66 0 472.66-36.25 482.56-36.25Q485.41-36.25 487.79-35.5 490.16-34.75 491.89-33.27 493.61-31.8 494.56-29.68 495.51-27.55 495.51-24.8L495.51-24.8Q495.51-22.65 494.86-20.53 494.21-18.4 492.76-16.73 491.31-15.05 488.96-14 486.61-12.95 483.26-12.95L483.26-12.95 478.16-12.95 478.16 0ZM526.01 0L501.51 0 501.51-36.25 525.31-36.25 525.31-31.3 507.01-31.3 507.01-20.7 523.31-20.7 523.31-15.65 507.01-15.65 507.01-5.05 526.01-5.05 526.01 0ZM537.86 0L532.36 0 532.36-36.25 542.26-36.25Q545.11-36.25 547.48-35.5 549.86-34.75 551.58-33.27 553.31-31.8 554.26-29.68 555.21-27.55 555.21-24.8L555.21-24.8Q555.21-23.3 554.91-21.83 554.61-20.35 553.93-18.98 553.26-17.6 552.21-16.43 551.16-15.25 549.66-14.45L549.66-14.45Q551.66-11.3 554.01-7.48 556.36-3.65 558.76 0L558.76 0 552.21 0Q551.21-1.55 550.13-3.25 549.06-4.95 547.98-6.63 546.91-8.3 545.88-9.93 544.86-11.55 543.96-12.95L543.96-12.95 542.96-12.95 537.86-12.95 537.86 0ZM537.86-31.15L537.86-18.1 542.81-18.1Q544.81-18.1 546.16-18.78 547.51-19.45 548.28-20.45 549.06-21.45 549.38-22.6 549.71-23.75 549.71-24.7L549.71-24.7Q549.71-25.65 549.38-26.78 549.06-27.9 548.26-28.88 547.46-29.85 546.13-30.5 544.81-31.15 542.86-31.15L542.86-31.15 537.86-31.15Z" opacity="1" transform="matrix(1,0,0,1,0,0)" fill="#ffffff" class="slogan-text-1" data-fill-palette-color="secondary" id="text-1"></path></svg></g></svg></g></svg></g></svg></g><g><svg viewBox="0 0 72.17319018562308 120.28865030937182" height="120.28865030937182" width="72.17319018562308"><g><svg xmlns="http://www.w3.org/2000/svg" xmlns:xlink="http://www.w3.org/1999/xlink" version="1.1" x="0" y="0" viewBox="14 2 36 60" style="enable-background:new 0 0 64 64;" xml:space="preserve" height="120.28865030937182" width="72.17319018562308" class="icon-icon-0" data-fill-palette-color="accent" id="icon-0"></svg></g></svg></g></svg></g><defs></defs><mask id="26319009-e4ab-4b79-b7e1-a7caeaf2706f"><g id="SvgjsG1006"><svg viewBox="0 0 395.52 95.19349205610003" height="95.19349205610003" width="395.52"><g><svg viewBox="0 0 499.7880206172563 120.28865030937182" height="95.19349205610003" width="395.52"><g></g><g transform="matrix(1,0,0,1,104.26802061725631,16.624552973292346)"><svg viewBox="0 0 395.52 87.03954436278713" height="87.03954436278713" width="395.52"><g id="SvgjsG1004"><svg viewBox="0 0 395.52 87.03954436278713" height="87.03954436278713" width="395.52" id="SvgjsSvg1003"><g><svg viewBox="0 0 395.52 57.07441783649876" height="57.07441783649876" width="395.52"><g transform="matrix(1,0,0,1,0,0)"><svg width="395.52" viewBox="0.4 -34.3 242.19 34.949999999999996" height="57.07441783649876" data-palette-color="#ffffff"></svg></g></svg></g><g transform="matrix(1,0,0,1,0,70.54831810166804)"><svg viewBox="0 0 232.209792 16.49122626111908" height="16.49122626111908" width="232.209792"><g transform="matrix(1,0,0,1,0,0)"><svg width="232.209792" viewBox="1.2 -37.95 557.56 39.6" height="16.49122626111908" data-palette-color="#ffffff"></svg></g></svg></g></svg></g></svg></g><g><svg viewBox="0 0 72.17319018562308 120.28865030937182" height="120.28865030937182" width="72.17319018562308"><g><svg xmlns="http://www.w3.org/2000/svg" xmlns:xlink="http://www.w3.org/1999/xlink" version="1.1" x="0" y="0" viewBox="14 2 36 60" style="enable-background:new 0 0 64 64;" xml:space="preserve" height="120.28865030937182" width="72.17319018562308" class="icon-icon-0" data-fill-palette-color="accent" id="SvgjsSvg1000"><path d="M45 36h-3v-4H14v25c0 2.8 2.2 5 5 5h18c2.8 0 5-2.2 5-5v-3h3c2.8 0 5-2.2 5-5v-8C50 38.2 47.8 36 45 36zM23.9 54.5l-1.7 1L17.8 48l4.3-7.5 1.7 1L20.2 48 23.9 54.5zM27 55.3L25 54.7l4-14 1.9 0.5L27 55.3zM33.9 55.5l-1.7-1 3.7-6.5-3.7-6.5 1.7-1 4.3 7.5L33.9 55.5zM48 49c0 1.7-1.3 3-3 3h-3V38h3c1.7 0 3 1.3 3 3V49z" fill="white"></path><g fill="white"><path d="M38 30h-2v-2c0-1.1-0.9-2-2-2H20c-2.2 0-4-1.8-4-4s1.8-4 4-4h14c1.1 0 2-0.9 2-2s-0.9-2-2-2H20c-2.2 0-4-1.8-4-4s1.8-4 4-4h14c1.1 0 2-0.9 2-2V2h2v2c0 2.2-1.8 4-4 4H20c-1.1 0-2 0.9-2 2s0.9 2 2 2h14c2.2 0 4 1.8 4 4s-1.8 4-4 4H20c-1.1 0-2 0.9-2 2s0.9 2 2 2h14c2.2 0 4 1.8 4 4V30z" fill="white"></path></g></svg></g></svg></g></svg></g><defs><mask></mask></defs></svg></g></mask><linearGradient x1="0" x2="1" y1="0.578" y2="0.595" id="75e64a62-641f-4e86-8e42-0b6018675d19"><stop stop-color="#6ee2f5" offset="0"></stop><stop stop-color="#6454f0" offset="1"></stop></linearGradient><rect width="395.52" height="95.19349205610003" fill="url(#75e64a62-641f-4e86-8e42-0b6018675d19)" mask="url(#26319009-e4ab-4b79-b7e1-a7caeaf2706f)" data-fill-palette-color="accent"></rect></svg><rect width="395.52" height="95.19349205610003" fill="none" stroke="none" visibility="hidden"></rect></g></svg></g></svg>