<svg xmlns="http://www.w3.org/2000/svg" version="1.1" xmlns:xlink="http://www.w3.org/1999/xlink" xmlns:svgjs="http://svgjs.dev/svgjs" width="1000" height="1000" viewBox="0 0 1000 1000"><rect width="1000" height="1000" fill="#000000"></rect><g transform="matrix(0.7,0,0,0.7,149.6500015258789,149.6500015258789)"><svg viewBox="0 0 280 280" data-background-color="#ffffff" preserveAspectRatio="xMidYMid meet" height="1000" width="1000" xmlns="http://www.w3.org/2000/svg" xmlns:xlink="http://www.w3.org/1999/xlink"><g id="tight-bounds" transform="matrix(1,0,0,1,0.1399993896484375,0.1399993896484375)"><svg viewBox="0 0 279.72 279.72" height="279.72" width="279.72"><g><svg viewBox="0 0 279.72 279.72" height="279.72" width="279.72"><g><svg viewBox="0 0 279.72 279.72" height="279.72" width="279.72"><g id="textblocktransform"><svg viewBox="0 0 279.72 279.72" height="279.72" width="279.72" id="textblock"><g><svg viewBox="0 0 279.72 279.72" height="279.72" width="279.72"><g transform="matrix(1,0,0,1,100.30161823329979,73.92936372216631)"><svg viewBox="0 0 79.11676353340044 131.8612725556674" height="131.8612725556674" width="79.11676353340044"><g><svg xmlns="http://www.w3.org/2000/svg" xmlns:xlink="http://www.w3.org/1999/xlink" version="1.1" x="0" y="0" viewBox="14 2 36 60" style="enable-background:new 0 0 64 64;" xml:space="preserve" height="131.8612725556674" width="79.11676353340044" class="icon-o-0" data-fill-palette-color="accent" id="o-0"><path d="M45 36h-3v-4H14v25c0 2.8 2.2 5 5 5h18c2.8 0 5-2.2 5-5v-3h3c2.8 0 5-2.2 5-5v-8C50 38.2 47.8 36 45 36zM23.9 54.5l-1.7 1L17.8 48l4.3-7.5 1.7 1L20.2 48 23.9 54.5zM27 55.3L25 54.7l4-14 1.9 0.5L27 55.3zM33.9 55.5l-1.7-1 3.7-6.5-3.7-6.5 1.7-1 4.3 7.5L33.9 55.5zM48 49c0 1.7-1.3 3-3 3h-3V38h3c1.7 0 3 1.3 3 3V49z" fill="#ffffff" data-fill-palette-color="accent"></path><g fill="#b61d1d" data-fill-palette-color="accent"><path d="M38 30h-2v-2c0-1.1-0.9-2-2-2H20c-2.2 0-4-1.8-4-4s1.8-4 4-4h14c1.1 0 2-0.9 2-2s-0.9-2-2-2H20c-2.2 0-4-1.8-4-4s1.8-4 4-4h14c1.1 0 2-0.9 2-2V2h2v2c0 2.2-1.8 4-4 4H20c-1.1 0-2 0.9-2 2s0.9 2 2 2h14c2.2 0 4 1.8 4 4s-1.8 4-4 4H20c-1.1 0-2 0.9-2 2s0.9 2 2 2h14c2.2 0 4 1.8 4 4V30z" fill="#ffffff" data-fill-palette-color="accent"></path></g></svg></g></svg></g><g></g></svg></g></svg></g></svg></g><g></g></svg></g><defs></defs><mask id="f314b733-3290-41d3-a549-6a9b06369836"><g id="SvgjsG1064"><svg viewBox="0 0 279.72 279.72" height="279.72" width="279.72"><g><svg viewBox="0 0 279.72 279.72" height="279.72" width="279.72"><g><svg viewBox="0 0 279.72 279.72" height="279.72" width="279.72"><g id="SvgjsG1063"><svg viewBox="0 0 279.72 279.72" height="279.72" width="279.72" id="SvgjsSvg1062"><g><svg viewBox="0 0 279.72 279.72" height="279.72" width="279.72"><g transform="matrix(1,0,0,1,100.30161823329979,73.92936372216631)"><svg viewBox="0 0 79.11676353340044 131.8612725556674" height="131.8612725556674" width="79.11676353340044"><g><svg xmlns="http://www.w3.org/2000/svg" xmlns:xlink="http://www.w3.org/1999/xlink" version="1.1" x="0" y="0" viewBox="14 2 36 60" style="enable-background:new 0 0 64 64;" xml:space="preserve" height="131.8612725556674" width="79.11676353340044" class="icon-o-0" data-fill-palette-color="accent" id="SvgjsSvg1061"></svg></g></svg></g><g><path d="M32.133 87.276l1.494-3.638 3.984 1.637-5.279 12.849-3.983-1.637 1.632-3.974-5.704-0.136-4.253 10.352 4.149 3.923 1.79-4.358 3.984 1.637-5.202 12.662-3.984-1.637 1.464-3.563-14.914-15.122-1.337 3.254-3.947-1.621 6.243-15.196 3.947 1.621-1.353 3.292zM17.023 99.9l3.131-7.621-11.115-0.216-0.076 0.187z" fill="white"></path><path d="M40.615 39.064c2.108-1.949 4.428-3.396 6.96-4.342 2.531-0.945 5.078-1.17 7.638-0.673 2.561 0.496 4.9 1.89 7.019 4.181v0c2.095 2.267 3.295 4.701 3.598 7.303 0.303 2.602-0.115 5.127-1.256 7.577-1.141 2.45-2.765 4.649-4.873 6.598v0l-10.2 9.43-2.923-3.163 3.607-3.335-13.238-14.32-3.608 3.336-2.924-3.163zM56.354 56.937c2.331-2.155 3.802-4.52 4.414-7.096 0.616-2.57-0.282-5.16-2.693-7.767v0c-2.416-2.613-4.929-3.713-7.54-3.301-2.615 0.408-5.088 1.689-7.419 3.844v0l-2.161 1.997 13.239 14.32z" fill="white"></path><path d="M95.409 7.365c2.738-0.863 5.454-1.183 8.147-0.958 2.693 0.225 5.091 1.108 7.195 2.65 2.104 1.541 3.626 3.8 4.565 6.776v0c0.928 2.944 0.975 5.657 0.139 8.14-0.836 2.482-2.292 4.588-4.368 6.317-2.077 1.729-4.484 3.025-7.222 3.889v0l-13.248 4.177-1.295-4.107 4.686-1.478-5.865-18.599-4.686 1.478-1.296-4.107zM102.02 30.245c3.027-0.955 5.367-2.466 7.018-4.535 1.654-2.062 1.946-4.787 0.878-8.174v0c-1.07-3.394-2.874-5.461-5.411-6.202-2.539-0.747-5.323-0.643-8.35 0.312v0l-2.806 0.885 5.865 18.598z" fill="white"></path><path d="M158.606 5.462l-4.939-0.378-1.485 19.445 4.939 0.377-0.328 4.295-15.282-1.168 0.328-4.294 4.899 0.374 1.485-19.445-4.899-0.374 0.328-4.294 15.282 1.167z" fill="white"></path><path d="M211.425 30.49l-4.282-2.059 2.361-4.911-12.119-5.826-3.425 7.126 4.875 2.343 1.528-3.18 3.663 1.761-4.744 9.868-3.663-1.761 1.529-3.18-4.875-2.343-3.337 6.942 12.118 5.826 2.361-4.911 4.282 2.059-4.227 8.793-25.594-12.305 1.866-3.881 4.392 2.111 8.45-17.576-4.392-2.111 1.866-3.882 25.594 12.305z" fill="white"></path><path d="M278.948 106.275l-3.981 1.643-1.705-4.131-26.803-1.133-1.061-2.57 18.219-19.669-1.721-4.168 3.982-1.643 5.426 13.149-3.981 1.643-1.551-3.757-12.896 13.219 18.4 0.117-1.751-4.243 3.981-1.643z" fill="white"></path><path d="M31.697 188.245v0l-2.558-0.266c0.031-0.767 0.015-1.515-0.048-2.245-0.068-0.721-0.201-1.393-0.4-2.016v0c-0.336-1.053-0.82-1.825-1.452-2.317-0.638-0.49-1.293-0.627-1.967-0.411v0c-0.571 0.183-0.955 0.553-1.152 1.111-0.201 0.567-0.333 1.228-0.396 1.983-0.061 0.762-0.104 1.579-0.13 2.451-0.024 0.878-0.146 1.724-0.367 2.537-0.223 0.807-0.594 1.541-1.112 2.202-0.516 0.667-1.294 1.167-2.333 1.499v0c-0.803 0.256-1.575 0.341-2.318 0.252-0.734-0.084-1.429-0.343-2.085-0.777-0.66-0.426-1.252-1.029-1.777-1.809-0.527-0.787-0.976-1.758-1.345-2.914v0c-0.236-0.738-0.397-1.419-0.483-2.043-0.094-0.628-0.137-1.205-0.128-1.731 0.007-0.533 0.046-1.009 0.117-1.428 0.071-0.419 0.141-0.777 0.208-1.074v0l2.773 0.44c-0.172 0.791-0.245 1.635-0.22 2.533 0.031 0.896 0.155 1.68 0.37 2.354v0c0.107 0.334 0.281 0.735 0.522 1.203 0.241 0.468 0.541 0.896 0.899 1.284 0.349 0.384 0.752 0.683 1.21 0.897 0.458 0.215 0.956 0.236 1.495 0.064v0c0.482-0.154 0.854-0.418 1.116-0.792 0.258-0.366 0.45-0.805 0.576-1.32 0.121-0.506 0.201-1.065 0.239-1.679 0.038-0.613 0.077-1.242 0.119-1.884 0.044-0.637 0.104-1.268 0.181-1.894 0.076-0.626 0.228-1.212 0.456-1.759 0.224-0.539 0.532-1.015 0.923-1.431 0.399-0.411 0.933-0.723 1.601-0.936v0c0.623-0.199 1.276-0.27 1.959-0.212 0.683 0.058 1.34 0.262 1.968 0.613 0.631 0.357 1.206 0.863 1.727 1.518 0.527 0.652 0.948 1.473 1.264 2.462v0c0.193 0.603 0.33 1.211 0.412 1.821 0.082 0.611 0.137 1.17 0.165 1.677 0.023 0.516 0.029 0.953 0.015 1.311-0.011 0.364-0.026 0.606-0.044 0.726z" fill="white"></path><path d="M25.169 194.669v0c1.179-0.596 2.413-0.933 3.703-1.011 1.296-0.081 2.544 0.073 3.745 0.464 1.198 0.384 2.295 0.985 3.291 1.803 0.995 0.819 1.798 1.832 2.409 3.041v0c0.605 1.197 0.943 2.442 1.015 3.735 0.072 1.293-0.092 2.538-0.49 3.737-0.399 1.198-1.013 2.298-1.844 3.299-0.825 0.998-1.826 1.795-3.005 2.391v0c-1.209 0.611-2.457 0.951-3.744 1.02-1.287 0.069-2.528-0.093-3.723-0.486-1.189-0.396-2.28-1.007-3.272-1.835-0.992-0.828-1.791-1.84-2.396-3.037v0c-0.611-1.209-0.954-2.455-1.029-3.739-0.075-1.284 0.083-2.519 0.472-3.705 0.393-1.195 1-2.288 1.822-3.277 0.822-0.989 1.837-1.789 3.046-2.4zM26.45 197.25v0c-0.866 0.438-1.601 1.009-2.203 1.714-0.594 0.708-1.03 1.487-1.31 2.338-0.28 0.851-0.395 1.736-0.346 2.656 0.052 0.925 0.293 1.812 0.721 2.66v0c0.429 0.848 0.997 1.562 1.705 2.14 0.708 0.579 1.484 1.002 2.33 1.269 0.848 0.274 1.733 0.381 2.655 0.324 0.925-0.067 1.827-0.323 2.705-0.767v0c0.866-0.438 1.601-1.009 2.203-1.714 0.594-0.708 1.03-1.487 1.31-2.339 0.28-0.851 0.396-1.733 0.351-2.646-0.046-0.913-0.284-1.794-0.713-2.642v0c-0.429-0.848-0.998-1.565-1.709-2.149-0.714-0.591-1.493-1.02-2.338-1.288-0.848-0.274-1.739-0.378-2.674-0.314-0.931 0.07-1.827 0.323-2.687 0.758z" fill="white"></path><path d="M30.727 224.051l-1.68-2.341 15.546-11.16 6.686 9.313-2.168 1.556-5.006-6.972-4.689 3.366 4.375 6.094-2.193 1.574-4.375-6.094z" fill="white"></path><path d="M52.867 221.437l8.556 9.024-1.989 1.885-3.317-3.5-11.9 11.283-1.982-2.091 11.899-11.283-3.255-3.433z" fill="white"></path><path d="M79.56 243.949l2.43 1.781c-1.499 0.974-3.08 1.992-4.744 3.054-1.66 1.057-3.295 2.097-4.907 3.122-1.612 1.025-3.142 2.001-4.59 2.928-1.439 0.926-2.674 1.734-3.706 2.424v0l2.872-11.156c0.04-0.146 0.067-0.256 0.08-0.33 0.017-0.08 0.053-0.187 0.109-0.321v0c-0.044 0.06-0.092 0.108-0.144 0.145-0.047 0.041-0.098 0.083-0.154 0.125v0c-0.06 0.048-0.116 0.095-0.166 0.142v0c-1.296 0.755-2.569 1.493-3.817 2.216v0c-0.532 0.304-1.081 0.62-1.648 0.949-0.567 0.329-1.126 0.658-1.677 0.989-0.542 0.33-1.07 0.645-1.583 0.946-0.518 0.297-0.983 0.566-1.394 0.808v0c0.942-3.429 1.871-6.859 2.788-10.289 0.917-3.43 1.853-6.868 2.807-10.314v0l2.618 1.918c-0.343 1.186-0.68 2.388-1.013 3.607-0.338 1.214-0.67 2.379-0.995 3.495-0.325 1.116-0.634 2.142-0.928 3.08-0.298 0.943-0.568 1.727-0.808 2.352v0l-0.379 0.876c0.067-0.068 0.19-0.162 0.369-0.281 0.174-0.123 0.303-0.208 0.387-0.255v0c0.051-0.046 0.193-0.138 0.428-0.276 0.23-0.132 0.502-0.297 0.813-0.494 0.317-0.194 0.666-0.402 1.047-0.624 0.386-0.219 0.775-0.447 1.167-0.687v0c0.907-0.53 1.915-1.12 3.026-1.769v0c0.251-0.844 0.497-1.625 0.738-2.341v0c0.193-0.628 0.391-1.234 0.594-1.821 0.208-0.591 0.351-1.021 0.431-1.289v0l2.242 1.644c-0.566 2.05-1.084 3.948-1.552 5.693v0c-0.214 0.737-0.428 1.479-0.64 2.225-0.203 0.745-0.391 1.435-0.564 2.069-0.172 0.634-0.327 1.193-0.464 1.678-0.134 0.479-0.232 0.824-0.296 1.036v0c-0.052 0.162-0.111 0.311-0.177 0.447-0.071 0.132-0.138 0.275-0.201 0.429v0c0.123-0.111 0.241-0.22 0.354-0.33 0.117-0.115 0.231-0.219 0.342-0.313v0c0.537-0.459 1.219-0.974 2.047-1.545 0.833-0.567 1.739-1.17 2.716-1.808 0.977-0.638 1.995-1.291 3.054-1.961 1.063-0.675 2.092-1.333 3.088-1.974z" fill="white"></path><path d="M87.634 269.619l-2.555-1.266c0.008-0.214 0.022-0.523 0.042-0.927 0.023-0.395 0.051-0.855 0.085-1.379 0.034-0.525 0.07-1.097 0.107-1.718 0.043-0.618 0.092-1.256 0.147-1.913v0l-6.061-3.003-4.466 3.914-2.554-1.265 16.531-14.172c-0.014 0.271-0.044 0.757-0.09 1.456-0.043 0.708-0.095 1.551-0.158 2.528-0.066 0.983-0.134 2.07-0.204 3.26-0.071 1.191-0.139 2.398-0.204 3.623-0.065 1.224-0.131 2.428-0.199 3.613-0.068 1.185-0.13 2.275-0.187 3.269-0.063 0.992-0.112 1.836-0.149 2.533-0.043 0.693-0.071 1.176-0.085 1.447zM85.542 254.028l-4.169 3.655 4.285 2.123c0.043-0.633 0.083-1.238 0.12-1.813 0.04-0.582 0.077-1.113 0.112-1.592 0.031-0.488 0.061-0.914 0.09-1.276 0.02-0.359 0.04-0.642 0.06-0.85v0c0.003-0.036 0.022-0.166 0.057-0.389 0.038-0.214 0.081-0.407 0.129-0.579v0c-0.108 0.142-0.242 0.29-0.4 0.445-0.156 0.163-0.251 0.256-0.284 0.276z" fill="white"></path><path d="M95.374 272.388l-2.763-0.917 6.029-18.163 4.961 1.647c0.953 0.316 1.785 0.731 2.495 1.244 0.71 0.513 1.272 1.111 1.684 1.794 0.419 0.686 0.667 1.436 0.744 2.25 0.084 0.816-0.027 1.685-0.332 2.606v0c-0.166 0.499-0.381 0.978-0.647 1.436-0.266 0.459-0.587 0.881-0.964 1.267-0.377 0.386-0.806 0.716-1.287 0.99-0.483 0.28-1.018 0.468-1.605 0.564v0c0.315 1.276 0.653 2.685 1.016 4.226 0.364 1.534 0.743 3.045 1.137 4.531v0l-3.281-1.089c-0.161-0.629-0.326-1.287-0.495-1.975-0.169-0.688-0.344-1.371-0.524-2.049-0.173-0.675-0.339-1.341-0.498-1.997-0.165-0.658-0.32-1.271-0.466-1.838v0l-0.498-0.165-2.553-0.848zM100.556 256.778l-2.172 6.543 2.476 0.822c0.672 0.223 1.27 0.294 1.793 0.212 0.528-0.073 0.976-0.234 1.343-0.481 0.373-0.246 0.677-0.542 0.913-0.89 0.236-0.348 0.407-0.681 0.513-1.001v0c0.106-0.32 0.166-0.683 0.181-1.091 0.017-0.413-0.055-0.828-0.216-1.243-0.16-0.415-0.425-0.805-0.794-1.169-0.369-0.364-0.88-0.654-1.532-0.871v0z" fill="white"></path><path d="M124.102 279.184l-12.739-2.276 3.367-18.839 12.37 2.21-0.458 2.568-9.505-1.699-0.985 5.514 8.469 1.513-0.469 2.628-8.47-1.514-0.983 5.504 9.872 1.764z" fill="white"></path><path d="M136.334 279.72l-0.418-19.133 4.811-0.105c1.934-0.042 3.574 0.212 4.921 0.762 1.354 0.55 2.458 1.288 3.315 2.213 0.856 0.925 1.486 1.966 1.888 3.124 0.403 1.164 0.617 2.326 0.643 3.484v0c0.031 1.429-0.197 2.724-0.684 3.888-0.48 1.163-1.153 2.159-2.018 2.987-0.858 0.828-1.866 1.47-3.021 1.927-1.15 0.457-2.375 0.699-3.676 0.727v0zM139.155 276.908l2.456-0.054c1.017-0.022 1.961-0.191 2.83-0.507 0.863-0.315 1.608-0.767 2.236-1.353 0.628-0.587 1.114-1.302 1.46-2.145 0.346-0.843 0.506-1.811 0.482-2.903v0c-0.025-1.159-0.253-2.165-0.682-3.019-0.423-0.854-0.964-1.56-1.624-2.118-0.666-0.558-1.41-0.967-2.231-1.225-0.828-0.252-1.663-0.368-2.506-0.35v0l-2.719 0.059z" fill="white"></path><path d="M170.799 276.08l-12.738 2.277-3.368-18.839 12.371-2.211 0.459 2.568-9.505 1.699 0.986 5.513 8.469-1.514 0.47 2.627-8.469 1.514 0.983 5.504 9.873-1.765z" fill="white"></path><path d="M168.404 256.831l2.689-0.946c0.219 0.237 0.572 0.631 1.059 1.181 0.491 0.542 1.051 1.159 1.68 1.853 0.623 0.695 1.284 1.435 1.981 2.218 0.695 0.777 1.351 1.515 1.968 2.212 0.617 0.697 1.172 1.32 1.665 1.868 0.491 0.542 0.844 0.936 1.058 1.182v0c0.03 0.025 0.112 0.125 0.245 0.3 0.135 0.181 0.248 0.338 0.337 0.47v0l-0.057-0.955c0.014-0.326 0.042-0.854 0.086-1.584 0.041-0.736 0.084-1.569 0.128-2.499 0.044-0.93 0.094-1.916 0.149-2.957 0.053-1.048 0.105-2.037 0.156-2.97 0.057-0.935 0.104-1.766 0.141-2.493 0.041-0.736 0.07-1.264 0.085-1.584v0l2.69-0.946c-0.015 0.262-0.045 0.745-0.092 1.447-0.042 0.693-0.095 1.537-0.159 2.531-0.058 0.992-0.127 2.077-0.205 3.256-0.076 1.184-0.157 2.388-0.241 3.61-0.082 1.229-0.161 2.436-0.237 3.62-0.079 1.178-0.147 2.263-0.206 3.256-0.052 0.99-0.099 1.832-0.14 2.525-0.046 0.702-0.076 1.184-0.091 1.446v0z" fill="white"></path><path d="M207.143 261.056l-11.513 5.908-8.737-17.026 11.18-5.738 1.191 2.321-8.59 4.408 2.557 4.983 7.654-3.928 1.219 2.375-7.654 3.928 2.552 4.974 8.923-4.579z" fill="white"></path><path d="M222.492 250.306l-10.127 7.183-11.071-15.61 2.374-1.685 9.481 13.367 7.752-5.498z" fill="white"></path><path d="M218.597 240.878v0c-0.926-0.942-1.622-2.016-2.087-3.221-0.471-1.21-0.703-2.446-0.697-3.71 0.002-1.258 0.241-2.486 0.72-3.682 0.478-1.197 1.2-2.27 2.166-3.219v0c0.957-0.94 2.04-1.64 3.25-2.102 1.21-0.461 2.446-0.684 3.709-0.667 1.263 0.016 2.497 0.268 3.703 0.755 1.201 0.483 2.265 1.195 3.191 2.137v0c0.949 0.966 1.652 2.052 2.109 3.257 0.456 1.205 0.679 2.437 0.667 3.695-0.016 1.253-0.268 2.478-0.754 3.675-0.487 1.197-1.209 2.265-2.166 3.205v0c-0.966 0.949-2.05 1.655-3.25 2.116-1.2 0.461-2.425 0.686-3.674 0.675-1.258-0.011-2.483-0.258-3.675-0.741-1.192-0.482-2.263-1.207-3.212-2.173zM220.667 238.873v0c0.68 0.692 1.448 1.219 2.302 1.579 0.855 0.351 1.73 0.53 2.626 0.538 0.896 0.008 1.774-0.151 2.635-0.477 0.866-0.331 1.637-0.829 2.315-1.495v0c0.678-0.666 1.185-1.424 1.522-2.274 0.336-0.85 0.504-1.718 0.502-2.605 0.003-0.891-0.163-1.767-0.499-2.628-0.345-0.861-0.862-1.642-1.552-2.344v0c-0.68-0.692-1.448-1.219-2.302-1.579-0.855-0.351-1.73-0.53-2.626-0.538-0.896-0.008-1.772 0.149-2.628 0.47-0.856 0.321-1.623 0.815-2.301 1.481v0c-0.678 0.666-1.188 1.426-1.528 2.281-0.346 0.86-0.518 1.733-0.517 2.619-0.003 0.891 0.168 1.772 0.513 2.642 0.35 0.866 0.862 1.642 1.538 2.33z" fill="white"></path><path d="M231.696 216.832l5.543 4.101 1.551-2.097c0.421-0.569 0.671-1.117 0.751-1.645 0.09-0.529 0.071-1.008-0.055-1.437-0.117-0.431-0.305-0.812-0.562-1.145-0.257-0.333-0.513-0.593-0.767-0.781v0c-0.271-0.2-0.598-0.371-0.98-0.511-0.388-0.144-0.804-0.205-1.249-0.182-0.445 0.023-0.897 0.153-1.358 0.391-0.461 0.238-0.896 0.633-1.305 1.185v0zM244.919 226.615l-1.732 2.341-15.385-11.383 3.109-4.202c0.597-0.807 1.25-1.469 1.959-1.984 0.708-0.515 1.452-0.863 2.229-1.041 0.782-0.184 1.572-0.187 2.37-0.008 0.802 0.174 1.593 0.55 2.373 1.127v0c0.607 0.449 1.143 0.988 1.608 1.617 0.465 0.629 0.784 1.326 0.956 2.091 0.167 0.761 0.155 1.582-0.037 2.463-0.195 0.887-0.643 1.804-1.345 2.753v0l-1.599 2.161z" fill="white"></path><path d="M259.549 202.546l-6.168 11.376-16.824-9.122 5.99-11.047 2.293 1.243-4.602 8.488 4.923 2.669 4.101-7.563 2.347 1.272-4.101 7.563 4.914 2.665 4.781-8.816z" fill="white"></path><path d="M262.835 193.879l-0.992 2.737-17.992-6.523 1.782-4.914c0.342-0.944 0.779-1.764 1.311-2.46 0.532-0.696 1.145-1.241 1.84-1.635 0.697-0.4 1.453-0.627 2.269-0.682 0.818-0.062 1.683 0.073 2.596 0.403v0c0.494 0.179 0.967 0.408 1.418 0.686 0.451 0.278 0.865 0.611 1.241 0.999 0.376 0.387 0.694 0.825 0.954 1.313 0.266 0.491 0.44 1.031 0.52 1.619v0c1.284-0.28 2.701-0.58 4.252-0.899 1.543-0.322 3.064-0.66 4.561-1.013v0l-1.179 3.25c-0.633 0.143-1.295 0.29-1.988 0.441-0.693 0.15-1.38 0.306-2.062 0.467-0.68 0.155-1.35 0.303-2.01 0.443-0.663 0.147-1.279 0.285-1.85 0.416v0l-0.179 0.494-0.917 2.528zM247.372 188.272l6.482 2.35 0.889-2.452c0.241-0.665 0.328-1.261 0.261-1.787-0.059-0.53-0.207-0.982-0.445-1.355-0.235-0.379-0.523-0.692-0.864-0.937-0.341-0.246-0.67-0.426-0.987-0.541v0c-0.317-0.115-0.678-0.185-1.085-0.21-0.413-0.028-0.829 0.033-1.249 0.181-0.42 0.149-0.816 0.403-1.19 0.762-0.374 0.359-0.678 0.862-0.913 1.508v0z" fill="white"></path><path d="M0.772 146.306c0-5.932 4.808-10.74 10.74-10.74 5.932 0 10.74 4.808 10.74 10.74 0 5.932-4.808 10.74-10.74 10.74-5.932 0-10.74-4.808-10.74-10.74z" fill="white"></path><path d="M255.287 146.306c0-5.932 4.808-10.74 10.74-10.74 5.932 0 10.74 4.808 10.74 10.74 0 5.932-4.808 10.74-10.74 10.74-5.932 0-10.74-4.808-10.74-10.74z" fill="white"></path></g></svg></g></svg></g></svg></g><g></g></svg></g><defs></defs></svg></g></mask><linearGradient x1="0" x2="1" y1="0.548" y2="0.55" id="aef67428-525c-4e7b-834d-f5dae85083b2"><stop stop-color="#ff6cab" offset="0"></stop><stop stop-color="#7366ff" offset="1"></stop></linearGradient><rect width="279.7200012207031" height="279.7200012207031" fill="#ffffff" mask="url(#f314b733-3290-41d3-a549-6a9b06369836)" data-fill-palette-color="primary"></rect></svg><rect width="279.72" height="279.72" fill="none" stroke="none" visibility="hidden"></rect></g></svg></g></svg>